<?xml version="1.0" encoding="utf-8"?>
<!-- Generator: Adobe Illustrator 22.1.0, SVG Export Plug-In . SVG Version: 6.00 Build 0)  -->
<svg version="1.1" id="Capa_1" xmlns="http://www.w3.org/2000/svg" xmlns:xlink="http://www.w3.org/1999/xlink" x="0px" y="0px"
	 viewBox="0 0 512 512" style="enable-background:new 0 0 512 512;" xml:space="preserve">
<style type="text/css">
	.st0{fill:url(#SVGID_1_);}
</style>
<linearGradient id="SVGID_1_" gradientUnits="userSpaceOnUse" x1="3.0394" y1="255.9996" x2="509.3757" y2="255.9996" gradientTransform="matrix(6.123234e-17 1 -1 6.123234e-17 512 0)">
	<stop  offset="0" style="stop-color:#80D8FF"/>
	<stop  offset="0.16" style="stop-color:#88D1FF"/>
	<stop  offset="0.413" style="stop-color:#9FBEFE"/>
	<stop  offset="0.725" style="stop-color:#C4A0FD"/>
	<stop  offset="1" style="stop-color:#EA80FC"/>
</linearGradient>
<path class="st0" d="M256,282.9c-14.9,0-27-12-27-26.7s12.1-26.7,27-26.7c14.9,0,27,12,27,26.7C283,271,270.9,282.9,256,282.9z
	 M283,29.7C283,15,270.9,3,256,3c-14.9,0-27,12-27,26.7s12.1,26.7,27,26.7C270.9,56.4,283,44.5,283,29.7z M256,456
	c-14.9,0-27,12-27,26.7s12.1,26.7,27,26.7c14.9,0,27-12,27-26.7S270.9,456,256,456z"/>
</svg>
