<svg height="512" viewBox="0 0 128 128" width="512" xmlns="http://www.w3.org/2000/svg"><g><path d="m87.723 50.313h-2.388v-14.828a21.335 21.335 0 1 0 -42.67 0v14.828h-2.388a8.056 8.056 0 0 0 -8.046 8.046v47.441a8.056 8.056 0 0 0 8.046 8.046h47.446a8.056 8.056 0 0 0 8.046-8.046v-47.441a8.056 8.056 0 0 0 -8.046-8.046zm-41.558-14.828a17.835 17.835 0 1 1 35.67 0v14.828h-3.886v-14.831a13.949 13.949 0 0 0 -27.9 0v14.831h-3.884zm7.386 14.828v-14.831a10.449 10.449 0 0 1 20.9 0v14.831zm38.718 55.487a4.551 4.551 0 0 1 -4.546 4.546h-47.446a4.551 4.551 0 0 1 -4.546-4.546v-47.441a4.552 4.552 0 0 1 4.546-4.546h47.446a4.552 4.552 0 0 1 4.546 4.546z"/><path d="m63.994 59.664a23.07 23.07 0 0 0 -14.242 41.229 1.756 1.756 0 0 0 .22.172 23.011 23.011 0 0 0 28.045 0 1.822 1.822 0 0 0 .219-.172 23.07 23.07 0 0 0 -14.242-41.229zm-11.081 39.213a11.592 11.592 0 0 1 22.162 0 19.5 19.5 0 0 1 -22.162 0zm3.387-19.383a7.694 7.694 0 1 1 7.694 7.694 7.7 7.7 0 0 1 -7.694-7.694zm21.625 17a15.168 15.168 0 0 0 -7.5-7.847 11.194 11.194 0 1 0 -12.862 0 15.17 15.17 0 0 0 -7.5 7.847 19.583 19.583 0 1 1 27.861 0z"/></g></svg>