<?xml version="1.0" standalone="no"?><svg xmlns="http://www.w3.org/2000/svg" viewBox="0 0 1440 320">
 <defs>
    <linearGradient id="gradient">
      <stop offset="5%" stop-color="#ffc3a0cc" opacity="0.8" />
      <stop offset="95%" stop-color="#ffafbdcc" opacity="0.8"/>
    </linearGradient>
  </defs>
<path fill="url(#gradient)" fill-opacity="1" d="M0,288L40,256C80,224,160,160,240,128C320,96,400,96,480,117.3C560,139,640,181,720,181.3C800,181,880,139,960,112C1040,85,1120,75,1200,74.7C1280,75,1360,85,1400,90.7L1440,96L1440,0L1400,0C1360,0,1280,0,1200,0C1120,0,1040,0,960,0C880,0,800,0,720,0C640,0,560,0,480,0C400,0,320,0,240,0C160,0,80,0,40,0L0,0Z"></path></svg>